# xmcd
#
# Track frame offsets:
#	150
#	8635
#	31320
#	48373
#	63870
#	72959
#	90134
#	98259
#	108142
#	122029
#	130666
#	143486
#	153992
#	174185
#	187362
#	199104
#	213276
#	230451
#	248941
#	271282
#
# Disc length: 4092 seconds
#
# Revision: 1
# Processed by: cddbd v1.5.1PL0 Copyright (c) Steve Scherf et al.
# Submitted via: audiograbber 1.83.01
#
DISCID=fb0ffa14
DTITLE=The Crooners - The Crooners
DYEAR=1900
DGENRE=
TTITLE0=Lulu
TTITLE1=Maybe
TTITLE2=Down and out
TTITLE3=Po' boy
TTITLE4=Bossanova
TTITLE5=Walkin' blues
TTITLE6=Raggmopp
TTITLE7=Key to the highway
TTITLE8=Banana split
TTITLE9=Lid
TTITLE10=Can't be satisfied
TTITLE11=3220 blues
TTITLE12=Stealin'
TTITLE13=Tell me mama
TTITLE14=Highway 51
TTITLE15=Ain't misbehavin'
TTITLE16=Baby please don't go
TTITLE17=Honeysuckle rose
TTITLE18=You're the one
TTITLE19=Catch that train
EXTD=
EXTT0=
EXTT1=
EXTT2=
EXTT3=
EXTT4=
EXTT5=
EXTT6=
EXTT7=
EXTT8=
EXTT9=
EXTT10=
EXTT11=
EXTT12=
EXTT13=
EXTT14=
EXTT15=
EXTT16=
EXTT17=
EXTT18=
EXTT19=
PLAYORDER=
